<?xml version="1.0" encoding="UTF-8"?>
<!DOCTYPE svg PUBLIC "-//W3C//DTD SVG 1.1//EN" "http://www.w3.org/Graphics/SVG/1.1/DTD/svg11.dtd">
<!-- Creator: CorelDRAW 2018 (64-Bit) -->
<svg xmlns="http://www.w3.org/2000/svg" xml:space="preserve" width="297mm" height="178mm" version="1.1" style="shape-rendering:geometricPrecision; text-rendering:geometricPrecision; image-rendering:optimizeQuality; fill-rule:evenodd; clip-rule:evenodd"
viewBox="0 0 29700 17800"
 xmlns:xlink="http://www.w3.org/1999/xlink">
 <defs>
  <style type="text/css">
   <![CDATA[
    .fil1 {fill:#E31E24}
    .fil0 {fill:#E8DACD}
   ]]>
  </style>
 </defs>
 <g id="Katman_x0020_1">
  <metadata id="CorelCorpID_0Corel-Layer"/>
  <g id="_2126885145088">
   <g>
    <path class="fil0" d="M7655.38 13337.42l1249 9.75c104.57,388.16 -58.99,3659.55 40.15,4045.24 175.56,12.09 560.66,58.92 682.56,-21.3 110.14,-104.24 -41.67,-3558.61 56.52,-4033.5l1262.74 -4.77 -7.37 -697.49 -3281.87 13.67 -1.73 688.4z"/>
    <path class="fil0" d="M5432.41 17403.3l2785.9 -1.99c51.56,-177.36 21.17,-514.16 14.53,-715.54l-2066.85 -6.23 -5.44 -4043.39 -740.89 12.67 12.75 4754.48z"/>
    <path class="fil0" d="M18660.25 16682.85c-19.05,-194.27 -26.15,-1372.55 13.2,-1505.91 696.69,-28.13 1788.57,-126.53 1774.9,727.94 -6.31,394.92 -248.75,622.77 -560.47,721.97 -282.92,89.91 -888.91,62.17 -1227.63,56zm4.3 -2173.55l-9.61 -1171.75c556.48,-41.47 1232.34,-46.78 1219,574.07 -13.33,623.37 -634.91,629.67 -1209.39,597.68zm1537.5 192.37c177.62,-227.33 415.69,-373.63 382.06,-895.08 -88.85,-1376.6 -1672.59,-1195.4 -2661.57,-1167.32l-5.9 4756.87c527.69,20.9 1239.38,28.06 1763.03,-2.07 1212.7,-69.6 1756.46,-1039.72 1433.72,-1891.35 -236.01,-623.1 -619.06,-646.93 -911.34,-801.05z"/>
    <path class="fil0" d="M13931.18 14358.23c202.1,116.57 544.94,555.63 781.81,771.67l1479.64 1545.65c176.76,174.31 535.59,701.54 788.92,745.27l-10.82 -4789.91 -721.57 13.73 0.86 3031.52 -781.82 -785.53c-301.5,-324.53 -2179.64,-2232.85 -2272,-2271.13l-0.73 4755.27c171.52,54.86 554.64,37.69 739.43,12.14l-3.72 -3028.68z"/>
    <path class="fil0" d="M22721.69 16019.2c-2.66,-75.9 347.88,-820.44 388.55,-909.81 141.13,-310.52 289.82,-617.93 426.98,-914.25 91.76,110.8 788.46,1675.97 802.58,1829.84l-1618.11 -5.78zm-305.68 641.22l2239.16 11.35c96.81,206.82 245.77,502.95 304.83,728.21l802.45 -6.24c-95.02,-303.89 -391.54,-903.38 -541.23,-1221.33l-1646.05 -3582.24c-180.02,105.96 -241.19,414.69 -329.11,591.72 -474.14,953.93 -929.05,2004.67 -1384.62,2982.89l-540.77 1233.81 775.92 1.85 319.42 -740.02z"/>
    <path class="fil0" d="M1819.69 16022.25c10.42,-107.48 730.53,-1677.16 820.24,-1822.59 139.27,283.97 284.91,594.37 422.13,894.53 103.84,227 333.82,723.83 381.99,930.92l-1624.36 -2.86zm-633.92 1376.2c158.79,-199.45 205.69,-506.79 343.77,-743.2l2199.95 10.81c91.97,103.78 303.23,582.7 334.81,731.8l808.49 1.06 -545.41 -1228.37c-183.99,-396.58 -366.32,-827.27 -559.13,-1196.12 -114.2,-218.36 -1016.38,-2275.98 -1138.73,-2372.92 -116.25,162.3 -1005.42,2123.77 -1128.44,2381.88 -190.64,399.83 -359.3,799.34 -541.7,1211.18 -164.88,372.1 -425.78,821.3 -538.38,1207.67l764.77 -3.79z"/>
    <path class="fil0" d="M25928.93 16592.21c141.06,661.53 1288.27,1045.05 2217.06,805.98 1037.61,-267.13 1317.62,-1222.06 852.49,-1942.98 -443.82,-687.79 -1547.58,-814.13 -1980.46,-1217.94 -360.23,-336 -24.42,-793.36 372.83,-896.73 611.96,-159.25 849.7,194.21 1087.83,453.77 135.42,-53.01 407.6,-260.69 491.93,-364.46 -51.82,-342.52 -479.19,-659.54 -844.79,-753.29 -1706.69,-437.99 -2612.72,1425.36 -1481.36,2175.66 330.44,219.15 687.8,355.77 1052.47,526.76 1408.18,660.13 672.8,1446.33 -212.92,1377.46 -581.11,-45.19 -727.75,-236.82 -998.99,-540.83 -141.86,41.26 -452.52,279.99 -556.09,376.6z"/>
    <polygon class="fil0" points="11523.35,17400.91 12261.91,17398.32 12254.54,12633.96 11529.65,12633.56 "/>
   </g>
   <g>
    <path class="fil0" d="M13960.2 3041.54l54.11 -3.63 0.07 369.82c-10.73,18.5 5.16,2.71 -19.5,12.45 -8.03,3.18 -6.15,-0.67 -18.84,5.41l38.02 -3.16 -1.19 272.63c-8.88,0.26 -15.65,-0.04 -24.54,1.28 -24.11,3.52 18.75,-4.11 -11.43,2.47l-10.91 3.61 48.49 -0.15 -1.94 297.48c-9.88,3.25 -14.81,2.99 -23.96,5.39l-18.25 6.43c-0.71,-1.2 -2.74,1.19 -3.93,2.08l47.82 -5.91c-1.78,108.56 -7.96,243.49 -0.21,349.64 15.65,214.35 340.41,224.98 365.36,6.14 12.43,-109.08 -6.21,-240.14 1.84,-352.39l22.52 -3.65 -23.7 -13.42 -0.89 -296.93 63.63 2.33c-13.37,-8.45 -41.03,-7.48 -62.26,-8.09l0.4 -271.93 39.14 2.2c-12.69,-8.49 -20.24,-6.12 -40.35,-8l1.7 -376.09c-2.35,-81.95 14.61,-195.53 -14.62,-264.32 -63.92,-150.37 -273.51,-151.41 -338.37,-3.2 -29.49,67.41 -13.02,182.44 -16.11,262.01 -21.05,0.23 -34.04,0.04 -52.1,9.5z"/>
    <path class="fil0" d="M13976.58 9360.57c14.5,8.26 20,6.37 42.42,8.72l-0.56 295.75 -37.11 -1.02 36.27 11.12 -2.75 268.28 -48.37 -2.95c13.95,8.06 30.84,7.19 51.81,8.71l-0.07 376.25 -34.29 0.4 32.53 7.72c0.92,67.53 -6.58,218.25 12.98,268.15 57.6,146.94 269.05,157.96 336.76,3.27 23.28,-53.2 8.05,-203.58 12.7,-276.12l-1.03 -378.05 39.21 -8.66 -37.45 2.79 -0.56 -270.65 35.06 -11.42 -36.72 0.18c-0.52,-43.95 -7.77,-270.45 3.46,-293.38 -11.5,-115.41 5.23,-247.77 -2.62,-365 -6.49,-96.92 -77.76,-176.27 -178.98,-177.53 -103.93,-1.3 -178.61,82.55 -182.56,176.04 -4.99,117.96 3.38,240.5 -1.44,359.01l-38.69 -1.61z"/>
    <path class="fil0" d="M10544.2 6468.64l-8.35 39.47c-76.36,2.17 -201.49,-12.25 -265.9,11.71 -176.77,65.76 -145.08,285.01 -4.04,337.19 52.91,19.58 199.2,12.53 267.42,12.83l5.66 38.86c0.57,1.99 1.41,3.87 1.91,5.49 0.52,1.62 1.26,3.7 2.06,5.48l-2.75 -53.86 381.39 0.49 7.25 40.04 0.93 -38.45c47.29,0.85 93.18,0.8 138.62,0.45l102.81 -0.53c31.72,1.65 16.76,-4.54 33.18,10.78 8.65,-17.04 -2.47,-8.57 28.74,-11.44l272.07 0.37c1.51,22.32 0.67,43.93 8.5,59.22l-2.39 -57.23c110.38,-6.08 232.64,7.78 336.96,-1.13 86.5,-7.4 161.33,-82.73 159,-181.78 -2.19,-93.13 -65.91,-169.11 -158.81,-177.01 -99.62,-8.48 -238.76,-1.18 -342.45,-1.24 -67.87,12.02 -221.63,2.41 -299.34,2.04l3.62 -70.81c-10.2,19.34 -10.82,43.56 -10.97,70.9l-271.14 -1.56 6.26 -87.78c-12.18,17.56 -9.51,62.83 -10.95,89.64l-380.27 0.1 0.98 -42.24z"/>
    <path class="fil0" d="M13981.33 9664.02l37.11 1.02 0.56 -295.75c-22.42,-2.35 -27.92,-0.46 -42.42,-8.72 -86.73,11.42 -426.03,-65.79 -516.01,-91.47 -154.67,-44.15 -308.47,-102.99 -445.17,-169.38 -297.34,-144.42 -487.82,-288.92 -719.14,-504.46 -28.02,-26.1 -180.69,-191.63 -215.89,-239.4 -22.12,-30 -44.91,-56.04 -67.36,-86.19 -172.51,-231.73 -325.35,-536.21 -407.37,-821.99 -27.63,-96.27 -106.77,-423.41 -91.94,-520.94 -7.83,-15.29 -6.99,-36.9 -8.5,-59.22l-272.07 -0.37c-31.21,2.87 -20.09,-5.6 -28.74,11.44 -0.88,352.88 138.01,791.8 283.19,1101.81 76.28,162.9 165.2,304.55 258.39,436.19 94.66,133.72 205.35,264.2 323.06,377.48 61.39,59.08 113.88,109.85 180.58,166.66 181.63,154.72 409.49,301.05 632.13,409.83 154.09,75.29 327.02,143.07 503.21,191.2 161.3,44.06 418.34,101.02 596.38,102.26z"/>
    <path class="fil0" d="M11210.29 6439.58l-3.62 70.81c77.71,0.37 231.47,9.98 299.34,-2.04 27.31,-339.09 101.83,-655.05 231.6,-923.19 120.16,-248.3 194.09,-373.22 357.61,-575.78 13.26,-16.42 22.49,-22.88 34.64,-39.29 20.88,-28.2 51.23,-55.73 67.05,-84.06 5.35,-46.37 -51.91,-68.24 -93.72,-116.31 -16.89,-19.42 -6.5,-14.78 -28.23,-29.48 -36.44,-24.64 -41.8,-62.81 -79.16,-75.67l-78.15 82.03c-81.46,99.57 -132.27,153.01 -207.3,270.88 -22.23,34.92 -42.22,62.14 -64.04,95.37 -54.18,82.47 -128.35,223.79 -170.11,314.03 -69.91,151.03 -124.33,294.7 -172.39,465.32 -36.44,129.38 -97.44,407.2 -93.52,547.38z"/>
    <path class="fil0" d="M16883.53 6907.18c12.86,90.08 -52.2,376.97 -76.58,469.54 -38.24,145.15 -85.06,276.1 -143.38,408.5 -56.52,128.32 -125.6,248.2 -195.28,356.69 -49.31,76.77 -115.46,166.39 -173.8,235.72 -18.46,21.94 -49.95,52.93 -64.67,77.91 19.38,9.21 38.54,34.74 54.85,50.74l105.91 104.63c16.91,17.37 33.92,44.58 66.55,40.73 35.7,-26.65 113.97,-128.88 145.36,-171 333.07,-446.72 558.34,-996.66 587.32,-1577.76l0.26 -36 -300.45 -0.92c-0.93,19.61 1.77,28.57 -6.09,41.22z"/>
    <path class="fil0" d="M12223.18 4442.49c10.38,27.18 29.71,27.79 49.83,54.43 35.4,46.88 63.19,57.72 90.7,91.5 13.36,16.39 54.12,60.33 70.73,66.4 16.6,-7.73 56.88,-43.45 73.51,-58.05 247.16,-217.13 689.67,-420.22 996.14,-500.4 82.99,-21.71 382.6,-93.43 462.31,-82.72 1.19,-0.89 3.22,-3.28 3.93,-2.08l18.25 -6.43c9.15,-2.4 14.08,-2.14 23.96,-5.39l1.94 -297.48 -48.49 0.15c-261.68,5.89 -751.23,147.81 -985.92,256.22 -146.19,67.54 -274.07,132.98 -404.61,215.96 -64.7,41.12 -325.76,220.29 -352.28,267.89z"/>
    <path class="fil0" d="M16885.08 6480.25l9.81 30.3 292.49 0.06 -0.37 -33.38c4.92,-298.08 -130.46,-750.35 -257.24,-1029.61 -17.37,-38.27 -47.81,-96.38 -58.24,-130.34l-321.79 39.84c0.78,17.94 99.08,204.41 116.36,245.41 77.87,184.83 134.54,352.51 176.23,552.58 13.63,65.44 51.01,266.48 42.75,325.14z"/>
    <path class="fil0" d="M13009.28 6869.04c36.56,-34.62 75.46,28.46 97.29,45.09 19.8,15.1 24.47,11.21 37.47,41.42 9.93,23.12 19.89,34.33 26.59,58.32 -109.41,-22.15 -47.12,-4.68 -104.51,-65.06 -51.56,-54.25 -80.96,-56.93 -56.84,-79.77zm1532.49 329.49c-33.32,-30.31 -52.65,-65.49 -91.94,-91.51 -7.42,17.42 -29.57,23.1 -47.08,33.16 -100.8,57.98 -303.94,118.47 -419.49,82.23 2.22,-68.06 142.76,-83.6 196.23,-88.98 74.87,-7.54 180.33,-15.24 232.08,-53.42 -14.78,-33.06 -41.28,-52.38 -68.57,-76.36 -12.98,-11.41 -19.13,-22.06 -34.5,-34.08 -28.15,-22.01 -15.81,-3.76 -37.53,-34.89 -78.58,13.86 -112.52,54.13 -178,72.48 -52.81,14.79 -134.99,57.07 -181.14,58.01 5.61,-20.12 99.34,-113.62 119.99,-130.34 33.3,-26.95 109.68,-98.87 144.29,-104.66 -1.14,-1.02 -3.34,-3.52 -3.98,-2.34l-18.07 -10.98c-14.04,-12.25 6.6,-7.12 -58.67,-60.87l-25.23 -25.2c-18.47,-23.87 -11.96,-15.93 -35.41,-33.95l-67.1 -69.12c-12.85,-12.37 -21.49,-21.3 -34.32,-33.86l-99.52 -105.38c-45.47,-45.89 -64.7,-47.87 -121.06,-117.71 -7.44,-9.22 -8.58,-9.76 -17.59,-17.15 -44.18,-36.2 -30.96,-32.47 -72.54,-66.02 -0.81,-0.67 -2.37,-1.99 -3.51,-3.02 -53.21,41.81 -101.17,3.69 -137.65,-12.76 -1.63,-33.09 11.16,-74.81 35.66,-98.68 -15.62,-13.65 -24.5,-29.2 -41.41,-40.11 -11.32,24.82 -38.53,55.52 -53.93,78.07 -14.33,20.99 -39.67,62.75 -53.66,76.95 -33.74,34.26 -47.45,3.32 -198.46,188.78l-85.32 108.27c-10.07,13.95 -14.89,23.22 -26.84,35.72 -43.75,45.77 -40.53,42.69 -76.03,37.49 21.86,-77.85 52.87,-149.46 81.83,-225.36 20.23,-53.02 73.51,-166.65 81.66,-220.45 73.04,-6.35 105.04,-26.01 151.35,-58.51 29.93,-21.01 85.93,-64.75 133.61,-67.67 -9.89,-12.68 1.72,0.95 -10.02,-9.43 -17.14,-15.16 -24.21,-24.23 -40.64,-30.99 -37.34,22.97 -65.63,43.85 -106.8,66.77 -33.62,18.73 -66.12,46.8 -102.13,60.02 10.79,-50.29 66.95,-225.13 90.07,-252.9 -12.72,-27.43 -16.34,-24.76 -37.92,-43.88 -8.43,-7.46 -12.72,-11.89 -19.47,-20.21 -14.4,-17.74 -4.62,-15.43 -24.81,-22.97 -19.1,72.81 -39.2,147.14 -56.81,226.33 -45.3,203.64 -73.68,240.57 -136.74,426.55 -22.21,65.51 -47.28,147.36 -76.55,202.71 9.84,-171.33 35.2,-345.43 46.8,-517.77 12.78,-189.89 42.5,-348.08 55.23,-506.83 -15.96,-22.4 -32.98,-33.72 -57.19,-48.75 -18.09,199.15 -41.41,397.49 -58.59,599.29 -12.49,146.56 -24.8,324.4 -25.32,472.34 -0.23,67.99 4.52,88.23 33.72,135.63 -39.85,-0.99 -319.49,84.26 -440.68,101.97 -82.14,12.01 -172.16,16.82 -255.33,19.6 -64.49,2.17 -60.63,-0.03 -113.59,21.67 -35.09,14.38 -77.51,20.62 -85.7,51.54 78.52,22.95 556.48,-20.5 697.11,-48.7l215.59 -43.46c13.88,16.81 31.69,33.41 44.8,50.85 -54.43,-8.41 -100.57,24.9 -134.53,49.57 -41.82,30.36 -65.96,50.85 -77.3,123 -8.69,55.27 -15.38,117.73 -19.32,173.68 -6.33,89.63 3.36,98.75 -56.49,142.21 -137.06,99.53 -201.91,153.6 -353.56,238.41 -27.47,15.36 -36.88,18.24 -59.88,37.33 -31.59,26.23 -34.43,12.93 -41.14,33.06 -6.6,19.86 1.32,15.86 2.41,17.64 86.66,42.71 466.61,-222.5 514.21,-258.23 69.69,-52.31 37.79,-30.51 76.94,-65.69 10.72,-9.63 18.5,-15.16 23.45,-27.56 18.6,-46.52 -39.89,-265.06 96.17,-393.51 22.67,-21.42 30.28,-27.21 37.32,-62.15 44.06,112.38 22.22,64.74 -30.28,183.58 -31.2,70.64 -37.28,139.44 -41.85,221l43.3 7.39c-0.65,47.61 -0.83,162.49 42.36,202.32 24.16,-37.46 20.25,-88.19 58.23,-112.66 58.28,-37.56 58.55,-9.5 112.9,26.92 -7.86,18.77 -53.01,44.39 -55.42,153.98 -1.02,46.45 21.31,142.24 55.06,159.74l7.96 -95.31c48.44,109.66 229.64,175.48 282.36,134.42 30.4,-23.68 70.84,-91.98 83.23,-139.06 15.65,-59.48 13.05,-149.93 -9.07,-201.33 -25.12,17.56 -12.57,19.3 -22.11,47.49 -31.23,-34.31 -42.83,-47.88 -86.68,-76.92 -37.11,-24.58 -65.84,-32.52 -116.18,-42.59 55.38,-12.59 122.06,22.42 169.45,-1.63 18.51,-61.39 -51.15,-218.67 -69.47,-274.19 33.72,-6.93 52.2,6.65 77.82,51.95 17.05,30.15 32.69,59.63 45.14,97.24 46.26,139.74 118.28,327.39 44.74,468.24 -52.05,99.69 -113.89,146.2 -175.85,257.04 -41.86,74.88 -294.01,401.41 -365.2,494.13 -63.96,83.32 -3.15,139.1 37.95,71.74 36.86,-60.4 386.96,-512.94 408.36,-530.62 38.85,-32.12 53.3,-35.69 24.18,-91.57 19.1,-15.2 31.55,-17.92 50.03,-44.94 40,-58.49 79.33,-188.87 94.38,-204.14 -10.69,43.32 -38.62,134.15 -9.85,165.97 17.4,19.24 54.79,23.74 76.83,6.01 64.82,-52.14 80.78,-372.5 80.46,-456.08 69.4,1.6 132.16,89.17 378.62,33.52 58.83,-13.28 115.21,-32.12 171.6,-50.74 27.9,-9.21 59.15,-17.36 85.84,-28.05 33.7,-13.49 27.23,-41.92 82.9,-16.8 -10.83,2.94 -11.48,0.96 -21.22,2.2l-30.9 9.33c61.09,11.17 55.13,-8.15 103.73,-11.6 65.05,162.93 39.2,666.83 53.29,698.9 9.96,11.68 19.64,13.76 33.45,28.45 10.84,11.54 20.1,24.02 30.42,37.61 68.72,90.46 101.27,147.19 201.75,208.5 57.13,34.86 128.48,53.11 201.84,71.62 68.6,17.29 178.09,62.44 217.58,48.97l7.11 -33.88c-38.05,-9.78 -88.11,-30.53 -127.99,-44 -97.62,-32.98 -206.98,-84.06 -289.38,-143.25 -37.91,-27.23 -101.26,-103.85 -127.58,-134.22 -26.88,-31 -69.34,-59.81 -70.29,-107.73 -2.5,-125.04 26.87,-715.66 -102.86,-767.22 -40.82,-16.23 -106.65,17.26 -140.72,31.12 -88.71,36.07 -160.67,64.51 -259.37,88.1 -65.19,15.57 -251.42,40.61 -283.48,-21.67 67.42,0.86 110.54,6.73 185.41,-1.3 123.42,-13.22 210.99,-39.28 321.17,-88.83l134.84 -72.07z"/>
    <path class="fil0" d="M13960.17 5978.59c-25.46,-68.6 69.33,-176.98 120.61,-224.39l79.81 -79.63c19.53,-22.64 32.7,-28.44 55.79,-46.5 30.47,-23.84 91.87,-62.64 129.68,-78.96 -48.89,147.08 -156.04,249.46 -272.07,340.37l-113.82 89.11zm291.31 -914.22c-58.83,30.39 -196.2,324.06 -245.38,421.72 -24.23,48.11 -58.59,108.19 -124.71,95.42 -19.66,-3.79 -134.94,-78.78 -137.74,-83.88 -10.12,-18.44 -17.18,-385.38 -12.66,-424.18 5.58,-47.75 16.62,-140.41 29.94,-183.65 149.72,-29.25 442.19,98.71 530.95,206.91 29.77,36.31 63.9,107.33 80.29,164.59 26.07,91.08 34.03,128.09 -25.84,183.44 -60.48,55.9 -65.41,71.37 -123.82,120.96 -23.72,20.13 -41.24,41.68 -65.1,60.06 -73.63,56.66 -156.7,187.12 -182.45,175.05 -68.02,-58.93 80.04,-333.21 108.68,-391.39 28.85,-58.6 56.38,-113.44 86.79,-175.03 26.78,-54.22 95.96,-136.51 81.05,-170.02zm-1127.7 288.49c8.7,15.24 18.44,19.97 31.24,32.7 11.76,11.7 20.47,20.99 32.87,30.47 4.77,-53.58 133.31,-223.19 182.4,-281.34l32.89 -29.67c5.58,-14.5 81.41,-90.21 90.38,-97.32 54.54,-43.24 121.16,-106.76 200.18,-125.79l3.06 517.95c4.03,117.71 10.39,106.11 -39.54,152.68l-62.06 69.09c-15.31,15.9 -20.39,19.59 -33.79,34.17 -15.49,16.87 -66.73,41.13 -48.07,75.5 1.29,0.77 3.6,-0.14 4.28,1.41 7.87,18.12 68.87,-48.74 70.37,-50.06 13.12,-11.52 22.83,-17.22 34.58,-28.25 121.99,-114.45 126.36,-85.73 200.07,-31.23 26.67,19.72 42.82,36.85 47.85,83.64 14.4,133.92 -2.02,127.34 -72.39,179.98 -50.76,37.98 -68.61,30.54 -90.32,48.41 11.49,13.13 18.55,21.78 30.95,29.45 8.24,-22.57 32.43,-29.52 63.02,-45.61 23.07,-12.15 53.25,-29.86 79.79,-36.98 6.26,39.71 8.37,64.82 7.55,107.92l-91.01 24.56c9.58,31.46 105.35,113.57 137.7,144.33l81.51 77.99c13.1,11.98 10.89,16.55 22.62,28.47l540.82 542.57c145.51,-48.98 215.68,-78.59 350.19,-152.09 70.67,-38.63 89.57,-59.92 134.8,-115.95 21.38,-26.48 44.17,-29.81 74.31,-50.82 17.07,-11.88 60.95,-46.95 73.1,-51.68 -20.84,63.74 -116.66,119.14 -134.65,151.01 30.72,31.14 194,73.92 250.6,90.11l191.12 65.04c10.42,4.34 18.39,7.52 28.2,11.5l29.82 17.84c-194.26,40.25 -635.71,87.18 -809.81,17.89 -43.2,44.3 -58,22.15 -168.54,26.63l33.28 33.07c22.86,22.44 12.24,8.34 30.62,37.24 66.65,-1.16 414.42,38.57 497.21,50.43 298.1,42.73 557.25,80.63 799.64,-95.18 35.17,-25.51 149.98,-128.38 176.08,-165.82 35.23,-50.55 37.02,-43.34 84.63,-120.5 72.29,-117.19 196.66,-371.01 152.18,-512.73 -37.22,-118.56 -199.08,-201.87 -358,-192.64 -84.26,4.89 -152.21,19.02 -226.96,44.77 -114.88,39.55 -106.16,44.47 -191.78,87.24 -94.33,47.11 -97.89,31.07 -128.11,145.92 -19.4,73.77 -10.2,179.35 -35.98,243.42 -49.42,-6.68 -110.24,-54.98 -169.07,-22.49 -28.97,16 -96.7,68.28 -142.18,80.19 -60.2,-136.83 -55.43,-164.22 -158.99,-239.66 -159.6,-116.27 -392.97,-180.15 -598.26,-196.92 -193.17,-15.77 -243.79,22.07 -367.42,29.65 31.99,-29.65 194.65,-124.69 251.02,-193.38 20.54,-25.04 51.91,-49.84 80.97,-89.92 9.01,-12.42 16.18,-19.79 25.25,-31.59 29.14,-37.91 61.93,-89.85 82.07,-145.79 69.92,-194.22 20.65,-368.21 -93.84,-527.29 -56.62,-78.67 -105.21,-105.1 -193.09,-149.16 -197.69,-99.11 -416.4,-164.99 -612.63,-29.48 -25.03,17.28 -39.41,34.09 -60.9,52.92 -98.46,86.23 -191.78,194.4 -267.77,301.7 -30.34,42.85 -75.99,130.56 -84.06,141.48z"/>
    <path class="fil0" d="M13052.76 7970.67c-19.07,-43.52 -72.83,-112.45 -93.14,-175.23 -35.34,-109.28 -4.37,-157.78 -12.2,-255.16 -55.86,-10.14 -83.71,39.67 -94.89,88.36 -18.47,80.43 21.88,268.05 118.53,331.88 32.25,21.31 41.01,11.74 81.7,10.15z"/>
    <path class="fil0" d="M16779.49 3807.58l1.64 1054.83c-70.88,13.13 -829,70.56 -890.28,66.76l4.69 -1102.04 883.95 -19.55zm1197.92 22.94l3.36 459.55c0.2,149.94 -10.49,311.13 -5.89,457.03 -127.29,7.43 -269.2,30.08 -400.65,43.13 -137.51,13.65 -270.02,26.91 -407.7,35.39l1.01 -990.46 809.87 -4.64zm-944.09 -155.24c-7.33,-51.22 -2.98,-425.66 -2.1,-506.63 1.8,-165.67 -5.58,-342.5 2.28,-506.6 191.08,16.56 385.11,45.44 580.04,65.24 143.4,14.58 448.53,42.6 576.84,66.61l-0.81 926.92c-57.47,11.17 -1031.68,4.11 -1115.49,4.11l1.66 1185.65c30.85,4.94 464.9,-40.47 533.05,-47.55 174.07,-18.09 350.29,-29.58 523.88,-49.04l-2.45 -1013.86 63.41 2.37 2.43 1063.19 -1170.78 108.61 5.79 -1271.1 76.47 -0.63c-19.94,-20.65 -48.23,-12.42 -74.22,-27.29zm-1148.06 -124.52c-4.38,-144.32 0.19,-300.01 5.9,-444.37 2.41,-61.11 7.6,-43.46 38.93,-73.93 56.26,-54.74 96.27,-75.28 176.44,-159.47 84.4,-88.63 96.34,-154.43 187.44,-143.44 145.46,17.56 374.53,34.1 498.26,60.69 14.11,66.97 -1.62,298.91 -2.17,384.1 -0.83,128.43 -1.47,259.48 -3.89,387.91 -77.28,-10.91 -732.45,2.13 -900.91,-11.49zm-138.73 -1040.98l1196.73 140.92c-5.95,169.59 2.4,347.1 2.11,517.95l-1.83 392c-7.52,28.44 -30.87,65.2 -60.74,71.9 -6.19,-149.08 4.75,-313.55 5.83,-463.68 0.56,-77.96 0.85,-156.08 2.06,-233.61 0.75,-48.71 8.73,-193.09 -0.14,-231.19 -174.95,-17.88 -363.78,-46.96 -540.72,-68.85 -185.24,-22.91 -368.47,-46.19 -547.01,-67.28 11.58,86.53 -3.85,946.13 -3.17,1066.45 346.93,2.23 706.93,-8.21 1052.28,9.34 10.13,15.94 4.6,-3.26 -7.14,18.15l103.34 -6.35 -5.12 125.9c-21.45,-11 -10.83,-23.96 -2.52,-46.1 -380.6,1.36 -758.42,18.13 -1136.8,6.71l-2.08 1281.48 1076.04 -92.44c10.85,-88.39 0.25,-1106.87 -3.44,-1182.55 21.68,9.67 23.38,29.39 36.2,50.31 49.15,80.3 33.11,51.65 34.24,212.29 0.93,131.13 7.48,904.49 -3.91,971.19l-1203.62 114.52 9.41 -2587.06zm-109.01 2692.94c101.3,-2.56 539.14,-47.88 664.27,-61.17 217.81,-23.15 450.31,-45.16 665.87,-62.85 325.63,-26.75 667.48,-65.57 994.3,-94.34 54.5,-4.79 112.01,-8.5 165.81,-15.42 27.63,-3.56 54.03,-6.44 84.51,-8.95 29.72,-2.46 49.44,-0.5 73.1,-12.8 15.22,-7.91 5.9,-501.01 5.7,-554.66 -0.68,-187.81 -1.46,-375.64 -1.56,-563.56l-3.27 -1098.47c-6.17,-38.52 6.26,21.23 -2.32,-9.58l-3.53 -8.53c-19.63,-17.08 -2320.77,-266.91 -2631.24,-314.12l-11.64 2804.45z"/>
    <path class="fil0" d="M17165.12 2833.86c118.78,7.7 236.53,21.74 357.78,29.5 190.39,12.17 288.62,47.93 390.42,188.52 34.87,48.14 36.91,80.68 43.86,150.09 9.29,92.82 31.87,259.32 25.65,350.93l-816.46 -5.26 -1.25 -713.78zm784.83 158.29c-36.52,-37.56 -9.61,-25.12 -74.93,-72.15 -27.7,-19.96 -89.38,-52.5 -94.38,-63.11l283.05 32.75 -3.86 501.02c0.1,33.17 7.64,145.76 -6.79,165.26 -0.93,-0.84 -2.08,-2.21 -2.44,-2.84 -13.85,-23.29 -7.19,-129.64 -7.45,-156.73l-0.61 -256.5c-0.78,-47.87 -15.4,-34.05 -14.32,-64.12 1.34,-37.32 3.56,-123.84 -2.31,-159.64l-78.98 -5.19 3.02 81.25zm-872.78 657.16c79.01,7.01 187.3,-0.13 270.01,0.45l677.51 5.02c35.66,0.1 91.99,7.08 124.97,2.9 -25.53,-76.24 -16.3,-484.21 -16.07,-614.27 0.1,-55.05 4.29,-159.17 -3.51,-208.3 -38.4,-18.15 -934.52,-105.23 -1045.76,-113.99l-7.15 928.19z"/>
    <path class="fil0" d="M14100.02 2456.64l615.92 1.5 -0.05 2797.37 679.45 -0.58 1.05 -2930.16 389.99 -289.91c230.27,-163.39 466.08,-345.35 695.52,-505.57l500.96 -358.93 713.62 522c191.93,153.7 499.94,381.6 704.1,531.26l204.69 153 0.62 2861.92c195.91,6.65 492.99,1.3 703.48,1.27 3.22,-926.64 -1.85,-1855.37 -6.6,-2782.02l594.49 -0.69c-11.47,-18.74 -183.31,-145.38 -216.86,-170.21l-608.49 -461.73c-70.88,-52.38 -59.99,-21.46 -59.85,-153.63l-0.27 -565.09 -614.35 -3.05 -2.61 173.29c-45.2,-26.56 -286.79,-213.27 -348.06,-259.22l-697.34 -520.98c-34.63,-25.52 -322.86,-248.6 -349.49,-260.47 -22.19,11.38 -66.52,49.13 -91.77,68.59 -321.34,247.67 -685.29,505.23 -999.46,753.77 -59.78,47.29 -121.51,91.18 -181.3,137.5l-184.28 140.1c-122.5,94.53 -242.28,183.55 -362.12,275.48 -124.1,95.22 -235.84,185.02 -362.28,280.95 -41.65,31.6 -702.99,534.45 -718.71,564.24z"/>
    <path class="fil0" d="M10544.2 6468.64l-0.98 42.24 380.27 -0.1c1.44,-26.81 -1.23,-72.08 10.95,-89.64 -14.07,-116.47 71,-484.99 102.92,-602.62 46.52,-171.38 117.68,-362.95 191.54,-514.36 73.63,-150.93 230.58,-428.49 330.03,-552.25l76.72 -99.83c13.19,-16.11 26.9,-28.53 40.17,-45.03 7.9,-9.81 10.29,-16.01 19.48,-26.16 22.31,-24.62 94.26,-100.72 101.76,-119.28 -16.93,-30.22 -41.39,-52.21 -65.09,-72.35 -44.68,-37.96 -160.83,-172.07 -202.74,-191.22 -12.93,8.55 -34.66,32.49 -49.52,47.92l-141.41 166.25c-189.52,235.31 -333.52,471.2 -469.07,754.99 -164.56,344.51 -323.66,914.39 -325.03,1301.44z"/>
    <path class="fil0" d="M17460.05 6937.97c15.86,109.44 -64.98,480.85 -92.96,588.52 -113.39,436.16 -300.92,795.06 -562.79,1144.99l-153.24 190.55c4.48,11.46 0.05,2.32 6.11,11.51l53.84 65.93c32,34.14 169.12,178.45 205.18,199.37l178.54 -211.59c221.23,-276.54 441.67,-676.85 556.44,-1014.79 93.17,-274.34 194.47,-685.91 198.37,-975.43l1.53 -70.38 -383.79 -0.13c0.53,24.18 1.11,53.47 -7.23,71.45z"/>
    <path class="fil0" d="M17468.16 6507.93c33.84,6.88 230.14,3.18 288.88,2.55l92.6 -6.05 0 -45.34c6.89,-220.2 -110.42,-727.54 -189.36,-950.54 -30.89,-87.27 -70.05,-198.78 -113.87,-274.82l-384.78 44.59c-0.15,20.29 89.07,223.12 105.67,269.44 34.67,96.71 67.99,186.62 95.51,292.13 60.17,230.65 83.36,421.05 105.35,668.04z"/>
    <path class="fil0" d="M10542.96 6919.67c4.39,236.44 64.85,514.46 119.78,729.94 78.77,309.04 222.92,638.72 381.62,905.13 82.44,138.4 203.03,313.83 307.88,437.88 350.71,414.93 771.12,753.38 1267.16,987.41 364.97,172.21 898.79,339.99 1364.53,345.8l34.29 -0.4 0.07 -376.25c-20.97,-1.52 -37.86,-0.65 -51.81,-8.71 -117.7,16.23 -531.12,-74.57 -653.28,-108.08 -541.74,-148.67 -1041.38,-452.73 -1438.03,-838.78l-140.7 -149.52c-96.77,-91.3 -287.14,-369.19 -362.29,-491.54 -45.09,-73.43 -91.02,-161.33 -130.3,-245.26 -79.59,-170.13 -156.48,-354.85 -206.22,-551.01 -32.64,-128.78 -124.38,-520.64 -106.81,-649.94l-7.25 -40.04 -381.39 -0.49 2.75 53.86z"/>
    <path class="fil0" d="M14417.08 9942.14l-39.21 8.66 1.03 378.05c215.17,4.13 516.04,-54.27 713.12,-102.39 373.22,-91.13 823.23,-284.84 1139.72,-505.11 81.95,-57.04 163.88,-110.32 239,-171.03 25.47,-20.59 208.5,-168.07 223.37,-193 -12.3,-36.35 -41.44,-48.63 -65.93,-73.23 -41.95,-42.11 -40.85,-51.63 -59.61,-71.46 -15.32,-16.17 -22.59,-17.07 -36.45,-31.8 -25.11,-26.71 -73.89,-81.93 -110.54,-86.64 -34.98,24.09 -63.4,53.76 -97.62,81.33 -132.62,106.84 -267.93,206.89 -416.27,295.02 -276.61,164.33 -549.45,290.71 -872.69,374.1 -134.81,34.78 -480.1,109.93 -617.92,97.5z"/>
    <path class="fil0" d="M11760.55 3968.71c12.89,41.84 95.26,104.95 126.08,140.87l137.05 129.08c16.97,-15.39 26.09,-20.24 47.12,-38.84 67.71,-59.84 287.75,-216.86 347.62,-255.8 357.75,-232.62 820.83,-412.54 1249.37,-481.45 69.66,-11.21 243.36,-43.17 308.25,-36.98 12.69,-6.08 10.81,-2.23 18.84,-5.41 24.66,-9.74 8.77,6.05 19.5,-12.45l-0.07 -369.82 -54.11 3.63c-408.81,13.44 -885,156.47 -1250.33,310.81 -244.02,103.08 -644.37,344.7 -844.91,521.57l-104.41 94.79z"/>
    <path class="fil0" d="M17468.16 6507.93l-274.56 2.07 -6.59 -32.77 0.37 33.38 -292.49 -0.06 -9.81 -30.3 0.68 29.26c-95.31,-4.25 -241.74,-7.06 -335.62,0.03 -210.75,15.93 -216.81,338.1 -5.26,357.45 100.58,9.21 230.95,0.78 335.52,2.18l3.13 38.01c7.86,-12.65 5.16,-21.61 6.09,-41.22l300.45 0.92 -0.26 36c2.55,-4.86 2.41,-1.52 6.54,-16.38 2.3,-8.3 2.08,-9.74 2.82,-17.9l262.77 -1.27 -1.89 70.64c8.34,-17.98 7.76,-47.27 7.23,-71.45l383.79 0.13 -1.53 70.38 8.91 -34.31c1.29,-10.97 0.97,-23.46 1.05,-34.56 73.01,1.33 216.46,11.29 272.82,-10.96 57.41,-22.67 114.31,-90.9 115.01,-170.58 0.73,-83.54 -55.85,-142.81 -118.86,-166.4 -56.94,-21.31 -199.3,-9.38 -270.06,-10.28l-8.77 -50.85 0 45.34 -92.6 6.05c-58.74,0.63 -255.04,4.33 -288.88,-2.55z"/>
    <path class="fil0" d="M14380.87 9369.66c-11.23,22.93 -3.98,249.43 -3.46,293.38l36.72 -0.18c307.55,2.4 763.47,-137.47 1035.71,-262.39 291.67,-133.83 458.16,-249.07 693.57,-439.41 18.3,-14.79 23.06,-17.39 42.9,-36.82 12.02,-11.76 32.01,-31.5 50.54,-36.18 -9.81,-18.71 -81.62,-83.74 -109.3,-110.86 -6.21,-6.09 -8.64,-7.23 -15.04,-13.43l-39.54 -40.18c-18.64,-18.92 -32.79,-39.44 -57.25,-49.71 -304.13,278.86 -733.22,505.75 -1135.7,611.34 -230.26,60.43 -287.52,51.89 -499.15,84.44z"/>
    <path class="fil0" d="M11529.23 4198.04c41.91,19.15 158.06,153.26 202.74,191.22 23.7,20.14 48.16,42.13 65.09,72.35 28.76,8.92 82.3,73.63 106.89,97.26 18.94,18.19 33.74,31.04 52.49,49.96 14.93,15.06 47.55,37 39.36,55.74 37.36,12.86 42.72,51.03 79.16,75.67 21.73,14.7 11.34,10.06 28.23,29.48 41.81,48.07 99.07,69.94 93.72,116.31 13.36,-4.75 95.29,33.27 -127.76,-195.82 -0.85,-0.83 -2.15,-1.88 -3.02,-2.72l-11.86 -12.36c-0.82,-0.99 -1.81,-2.41 -2.58,-3.39 -22.69,-29.26 -12.57,-8.56 -35.51,-25.34l-115.99 -112.81c-36.8,-52.38 -6.87,-3.9 -59.3,-59.98 -31.46,-33.65 -56.44,-71.35 -94.22,-104.56 -35.21,-30.94 -39.66,-25.03 -67.72,-70.38l-8.9 -12.83c-0.4,-0.43 -15.33,-10.64 -19.32,-13.4 -37.37,-25.86 -47.87,-58.96 -61.69,-69.73 -21.33,-16.62 -27.72,-1.16 -30.4,-38.69 -1.49,1.87 17.37,4.71 -8.02,2.19 -39.71,-3.94 -20.49,-30.97 -43.91,-42.35 -36.06,-17.51 -15.32,-8.49 -38.03,-30.84 -1.76,-1.73 -165.32,-142.43 -205.14,-202.2 -54.88,-82.36 -11.52,-172.87 56.08,-202.99 114.02,-50.82 191,66.55 286.56,161.07 26.34,26.04 54.98,52.36 76.26,78l64.72 76.96c19.32,18.78 52.16,60.9 69.66,72.01 54.97,34.92 106.91,106.97 155.85,152.44 14.1,13.1 29.54,21.4 41.73,32.26l97.34 95.89c18.5,16.56 6.75,11.49 29.83,14.63 -8.41,-19.14 -1.7,-8.22 -15.51,-23.29 -6.23,-6.8 -10.47,-9.86 -17.33,-16.5 -12.11,-11.72 -19.94,-19.54 -31.66,-30.94 -13.14,-12.78 -54.77,-45.39 -53.39,-61.7l-137.05 -129.08c-30.82,-35.92 -113.19,-99.03 -126.08,-140.87l-15.81 4.26c-15.01,-28.56 -165.81,-167.87 -203.36,-207.08 -27.32,-28.53 -68.71,-77.4 -110.4,-95.16 -109.11,-46.45 -240.58,57.03 -197.62,191.41 18.06,56.47 146.09,171.95 192.76,218.23 27.34,27.12 79.45,86.77 107.01,104.12 -2.19,14.17 2.26,0.92 -3.9,13.55z"/>
    <path class="fil0" d="M14420.05 3421.64c32.37,-5.07 53.77,3.15 85.27,2.79l1.72 -381.42 -125.64 -5.46 -1.7 376.09c20.11,1.88 27.66,-0.49 40.35,8z"/>
    <path class="fil0" d="M14403.73 4007.48c33.85,-5.71 68.04,2.22 102.66,3.34l0.34 -279.37c-0.15,-26.63 4.59,-25.6 -12.64,-31.44 -7.7,-2.61 -41.87,-1.02 -51.32,-0.55l-63.63 -2.33 0.89 296.93 23.7 13.42z"/>
    <path class="fil0" d="M13420.07 5648.89c13.14,14.35 19.2,23.22 40.26,31.21 -10.42,-93.71 -18.21,-190.33 -26.44,-285.46 -4.12,-47.64 -1.96,-94.73 -8.17,-142.42 -6.1,-46.78 -14.01,-94.55 -13.76,-142.44l-8.78 -4.76c-27.13,29.7 -12.91,78.8 -10.23,126.2 2.83,49.9 5.63,98.4 6.41,148.45 0.73,47.72 27.74,250.07 20.71,269.22z"/>
   </g>
  </g>
  <path class="fil1" d="M11224.89 3690.93l0 0c78.47,-78.88 207.21,-79.21 286.1,-0.73l5649.4 5620.48c78.88,78.48 79.22,207.22 0.74,286.1l0 0c-78.48,78.89 -207.22,79.21 -286.1,0.73l-5649.4 -5620.48c-78.89,-78.48 -79.22,-207.22 -0.74,-286.1z"/>
 </g>
</svg>
